<svg class="svg-icon" style="width: 1em; height: 1em;vertical-align: middle;fill: currentColor;overflow: hidden;" viewBox="0 0 1024 1024" version="1.1" xmlns="http://www.w3.org/2000/svg"><path d="M935.616 710.912c-43.456-26.176-99.84-46.912-165.12-58.752C808.128 617.088 832 567.488 832 512L832 448c0-106.048-85.952-192-192-192C616.96 256 595.136 260.736 574.72 268.16 574.976 264.064 576 260.16 576 256L576 192c0-106.048-85.952-192-192-192S192 85.952 192 192l0 64c0 55.488 23.872 105.088 61.504 140.16C188.224 408 131.84 428.672 88.384 454.912 37.184 471.616 0 519.232 0 576l0 64c0 70.72 57.28 128 128 128l146.944 0C263.68 786.944 256 808.32 256 832l0 64c0 70.72 57.28 128 128 128l512 0c70.72 0 128-57.28 128-128l0-64C1024 775.232 986.816 727.616 935.616 710.912zM576 448c0-35.328 28.672-64 64-64s64 28.672 64 64l0 128c0 35.328-28.672 64-64 64S576 611.328 576 576L576 448zM320 192c0-35.328 28.672-64 64-64s64 28.672 64 64l0 128c0 35.328-28.672 64-64 64S320 355.328 320 320L320 192zM128 640c0 0 17.984-128 256-128 23.808 0 44.8 1.6 64.384 3.84C449.408 563.968 468.672 606.912 498.816 640L128 640zM384 896c0 0 17.984-128 256-128s256 128 256 128L384 896z"  /></svg>